<svg width="302" height="105" viewBox="0 0 302 105" fill="none" xmlns="http://www.w3.org/2000/svg">
<path d="M0.985135 57.0763C1.68403 57.124 2.39247 57.2671 3.08183 57.2027C4.29357 57.0858 5.54109 56.988 6.68604 56.6159C8.16255 56.1364 8.88053 55.1012 8.87337 53.3693C8.80659 38.6608 8.80897 23.9523 8.85668 9.24615C8.86145 7.97233 8.37484 7.44038 7.2609 7.19707C5.20237 6.74861 3.17247 6.67227 1.19027 7.54295C0.842016 7.69323 0.474678 7.79819 0 7.74094C0.240917 7.51671 0.462751 7.26624 0.727521 7.07302C3.39192 5.1289 6.07778 3.21579 8.71833 1.24305C9.35998 0.763578 9.87044 0.742109 10.5574 1.09754C16.6638 4.2463 22.7798 7.38074 28.9029 10.4961C29.6805 10.8921 29.95 11.4336 29.9453 12.2995C29.9095 22.2372 29.9691 32.1748 29.8403 42.1077C29.8141 44.1258 30.2458 45.464 32.2161 46.1057C32.4379 46.1773 32.6359 46.3299 32.8339 46.4588C32.8935 46.4969 32.915 46.59 33.0342 46.7903C32.8005 46.9859 32.5643 47.2221 32.2924 47.4034C30.7396 48.4387 29.1629 49.4405 27.6267 50.5021C27.0352 50.91 26.5366 50.9815 25.8807 50.6404C24.0273 49.6743 22.1429 48.7702 19.9365 47.6753C20.9765 46.9621 21.8137 46.5184 22.4792 45.891C22.9086 45.4855 23.3308 44.8152 23.3403 44.257C23.4119 39.9251 23.357 35.5908 23.4023 31.2588C23.4119 30.276 23.1137 29.9063 22.1143 29.9373C20.2895 29.9946 18.46 29.9946 16.6352 29.9349C15.6477 29.9015 15.3352 30.2379 15.34 31.2374C15.3757 38.8683 15.2135 46.5065 15.4235 54.1327C15.5212 57.6583 13.9565 59.6096 10.9868 60.9407C9.57943 61.5728 8.38677 61.6849 6.99375 60.7808C5.04256 59.5142 2.93155 58.498 0.887337 57.3745C0.918347 57.2719 0.951741 57.1741 0.985135 57.0763ZM15.5809 11.1855C15.4855 11.6077 15.3948 11.8272 15.3948 12.0466C15.3781 16.4931 15.3781 20.9371 15.3519 25.3835C15.3471 26.1111 15.6453 26.3663 16.3466 26.3592C18.25 26.3353 20.1559 26.3019 22.057 26.3735C23.1209 26.4117 23.4143 26.0181 23.4023 24.9923C23.3713 21.9795 23.462 18.9644 23.4405 15.9516C23.4381 15.6272 23.0875 15.1787 22.775 15.0022C21.1911 14.0981 19.5691 13.2608 17.9567 12.4068C17.2053 12.0061 16.442 11.6268 15.5809 11.1855Z" fill="white"/>
<path d="M50.2364 47.5917C51.1047 46.9763 51.9324 46.5016 52.6074 45.8694C53.0177 45.4854 53.4327 44.858 53.4399 44.3332C53.5043 39.8438 53.4637 35.3521 53.4876 30.8603C53.4924 30.0612 53.2395 29.6986 52.3975 29.7082C49.5375 29.7368 46.6799 29.7392 43.8199 29.7177C43.0089 29.7106 42.7083 29.9992 42.7107 30.8365C42.7346 36.9551 42.6988 43.0761 42.7513 49.1947C42.756 49.6646 43.1735 50.3039 43.5885 50.5711C47.0305 52.8062 50.7254 53.2881 54.6301 51.957C54.9188 51.8592 55.2241 51.8067 55.6773 51.9379C55.4173 52.1741 55.1716 52.4293 54.8949 52.6416C52.3068 54.6191 49.6997 56.5728 47.1283 58.5718C46.5177 59.0465 46.0239 59.0871 45.2964 58.7865C42.0309 57.4435 38.7368 56.1673 35.4379 54.9102C34.8368 54.6812 34.1594 54.6549 33.1385 54.4641C34.0926 53.956 34.801 53.6936 35.3544 53.2428C35.7504 52.9207 36.1773 52.3411 36.1797 51.8759C36.2298 44.8819 36.2012 37.8854 36.2274 30.8913C36.2322 29.9968 35.9173 29.6676 35.0515 29.7153C34.3383 29.7559 33.6227 29.7368 32.9071 29.7129C32.3251 29.6939 32.0388 29.3623 32.4181 28.8661C33.2625 27.7593 33.854 26.3495 35.5595 26.1801C35.8076 26.1563 36.1606 25.5194 36.1797 25.1496C36.2513 23.7613 36.2513 22.3658 36.1917 20.9775C36.1439 19.8492 36.4898 18.8831 37.3724 18.2534C38.9682 17.1131 40.6427 16.0874 42.5652 14.8279C42.6511 15.6532 42.7298 16.0564 42.7298 16.4619C42.737 19.3244 42.7537 22.1845 42.7131 25.047C42.7012 25.9177 42.9922 26.2565 43.8819 26.2326C46.699 26.1634 49.5184 26.1276 52.3355 26.1372C53.249 26.1396 53.4876 25.7579 53.4757 24.9158C53.4423 22.1344 53.4208 19.3507 53.4876 16.5693C53.5043 15.8989 53.6927 15.0879 54.1054 14.5941C55.589 12.8194 57.6834 11.9344 59.9208 10.8752C59.9613 11.4859 60.0138 11.8938 60.0138 12.3041C60.0162 16.4381 60.04 20.572 59.9852 24.7035C59.9709 25.7865 60.281 26.2087 61.3997 26.142C62.7855 26.0585 64.1786 26.1062 65.5692 26.1348C65.9008 26.142 66.2299 26.2922 66.5615 26.3781C66.4542 26.693 66.3921 27.0341 66.2347 27.3204C65.2424 29.1381 63.785 29.9658 61.6406 29.7463C60.0186 29.5794 60.0043 29.7153 60.0066 31.3684C60.0138 35.4213 60.0591 39.4765 59.9995 43.5269C59.9852 44.5193 60.3024 45.0822 61.1731 45.4711C61.8505 45.7716 62.4802 46.1771 63.2507 46.6017C62.9764 46.8975 62.8332 47.1265 62.6281 47.2649C61.0109 48.3503 59.3722 49.3975 57.7668 50.4971C57.1848 50.8955 56.6863 50.9981 56.0208 50.6498C54.3678 49.7839 52.6742 48.9943 51.0045 48.1618C50.7802 48.0497 50.5894 47.8565 50.2364 47.5917Z" fill="white"/>
<path d="M122.469 7.17563C122.469 12.2375 122.469 16.8533 122.469 21.7601C123.041 21.4381 123.375 21.283 123.674 21.0755C125.071 20.0951 126.438 19.067 127.865 18.1319C128.187 17.9196 128.819 17.8003 129.11 17.9744C132.118 19.7492 135.087 21.5884 138.062 23.418C138.186 23.4943 138.267 23.6374 138.57 23.9762C134.937 26.2304 131.392 28.4274 127.586 30.7913C128.113 30.8915 128.38 30.9845 128.649 30.9869C130.238 30.9965 131.829 31.0418 133.413 30.9631C134.532 30.9082 134.928 31.2469 134.916 32.4301C134.854 38.3507 134.88 44.2714 134.877 50.192C134.877 51.993 135.354 52.7181 137.122 53.1642C138.255 53.4505 139.448 53.5053 140.698 53.6771C140.576 53.8488 140.488 54.0635 140.328 54.1876C138.828 55.3612 137.351 56.5754 135.781 57.6512C135.309 57.9756 134.508 58.1187 133.964 57.9661C132.91 57.6703 131.886 57.1789 130.927 56.6326C129.091 55.583 128.239 54.0301 128.292 51.8141C128.411 46.8118 128.335 41.8024 128.375 36.7978C128.382 35.9009 128.043 35.5956 127.185 35.629C126.035 35.6719 124.881 35.691 123.731 35.6242C122.703 35.5646 122.445 36.0202 122.464 36.9672C122.514 39.5482 122.65 42.1459 122.431 44.7103C122.278 46.5113 122.662 47.6563 124.451 48.1715C124.618 48.2192 124.745 48.4077 125.033 48.6486C124.523 49.016 124.103 49.3332 123.664 49.629C122.281 50.5593 120.904 51.504 119.49 52.3842C119.127 52.6084 118.533 52.8303 118.211 52.6847C116.157 51.7568 114.151 50.7239 111.821 49.5742C112.87 48.8418 113.679 48.1811 114.576 47.6754C115.633 47.0814 115.988 46.3061 115.981 45.0752C115.924 34.546 115.959 24.0167 115.909 13.4898C115.902 11.925 116.446 10.7895 117.729 9.9952C119.187 9.08874 120.678 8.23714 122.469 7.17563ZM130.348 26.7886C128.59 25.9465 127.132 25.3311 125.754 24.5701C123.146 23.1317 122.278 23.5611 122.474 26.6884C122.564 28.1292 122.488 29.5795 122.488 31.3352C125.2 29.7656 127.609 28.3725 130.348 26.7886Z" fill="white"/>
<path d="M216.028 54.5737C215.463 55.0532 214.905 55.5374 214.335 56.0074C212.558 57.4744 210.802 58.9677 208.98 60.3751C208.624 60.6494 207.933 60.7997 207.532 60.647C203.799 59.2348 200.095 57.7463 196.335 56.2602C196.741 56.0384 197.287 55.702 197.867 55.4325C198.551 55.1128 198.861 54.6668 198.859 53.8629C198.837 40.3494 198.837 26.8336 198.861 13.3202C198.864 12.397 198.561 12.0202 197.631 12.0512C195.884 12.1084 194.138 12.0846 192.392 12.137C189.773 12.2158 187.634 13.2677 186.074 15.4027C185.892 15.6484 185.826 15.9776 185.706 16.2686C185.558 16.1422 185.411 16.0133 185.263 15.8869C185.36 15.6078 185.437 15.3168 185.563 15.052C186.918 12.1752 188.318 9.31985 189.618 6.42156C190.019 5.52941 190.549 5.14297 191.503 5.13343C196.109 5.08334 200.715 5.0404 205.321 4.91636C208.374 4.83525 211.434 4.7303 214.471 4.42973C216.966 4.18165 219.07 2.98894 220.635 0.95894C220.816 0.715627 221.038 0.500939 221.491 0C221.372 0.567731 221.367 0.815815 221.271 1.02096C219.845 4.03852 218.376 7.03462 216.987 10.0713C216.594 10.9348 216.064 11.1805 215.153 11.202C212.257 11.2735 209.364 11.4643 206.471 11.5812C205.617 11.6146 205.328 11.9701 205.33 12.836C205.352 25.5932 205.349 38.3505 205.328 51.1077C205.326 51.883 205.59 52.3362 206.253 52.7274C209.273 54.5093 212.431 55.3848 215.945 54.235C215.971 54.3471 216 54.4616 216.028 54.5737Z" fill="white"/>
<path d="M296.998 19.9399C295.953 21.0515 295.047 21.9341 294.25 22.9074C293.93 23.2962 293.689 23.8806 293.687 24.3768C293.647 30.9725 293.675 37.5682 293.63 44.1639C293.623 45.1252 293.947 45.619 294.815 45.9339C296.829 46.6686 298.801 46.3656 300.776 45.805C301.146 45.7001 301.509 45.5737 302 45.6285C301.847 45.8074 301.723 46.0269 301.54 46.1605C299.066 47.9567 296.566 49.7195 294.114 51.5468C293.468 52.0286 292.979 52.0262 292.292 51.6517C290.622 50.7381 288.919 49.877 287.194 49.0683C286.343 48.6675 285.415 48.4314 284.22 48.0139C284.981 47.5035 285.603 47.0288 286.281 46.6471C286.992 46.2463 287.22 45.7072 287.218 44.8962C287.187 38.3005 287.18 31.7048 287.22 25.1091C287.225 24.1406 286.915 23.6707 285.985 23.4226C284.122 22.9241 282.283 22.3349 280.279 21.7361C280.239 22.3349 280.193 22.7165 280.191 23.1006C280.184 29.8561 280.208 36.6092 280.158 43.3647C280.15 44.3547 280.456 44.9177 281.329 45.3065C282.03 45.619 282.681 46.0412 283.602 46.5517C281.367 48.0211 279.397 49.3283 277.405 50.6021C277.209 50.7262 276.83 50.7357 276.615 50.6331C274.583 49.6647 272.568 48.6604 270.22 47.5058C271.227 46.8045 272.071 46.3227 272.773 45.6834C273.185 45.3065 273.615 44.6815 273.619 44.1663C273.684 37.3726 273.684 30.5789 273.648 23.7852C273.646 23.4369 273.233 22.967 272.887 22.7666C271.835 22.1607 270.724 21.6622 269.347 20.9775C270.628 20.0926 271.776 19.5081 272.658 18.6494C274.862 16.5049 277.061 16.2234 279.471 18.2438C280.84 19.3912 282.114 19.3411 283.328 17.9314C285.047 15.9348 286.922 15.658 289.331 17.0034C291.283 18.0936 293.542 18.6327 295.665 19.4175C296.02 19.5487 296.375 19.6942 296.998 19.9399Z" fill="white"/>
<path d="M68.5128 23.0364C68.8944 22.6308 69.0208 22.4424 69.195 22.3231C71.4777 20.7368 73.7509 19.1386 76.0694 17.6071C76.432 17.3686 77.0617 17.2708 77.4672 17.4068C80.7781 18.5255 84.0603 19.723 87.5953 19.9329C88.4182 19.983 88.361 20.5698 88.361 21.1376C88.3657 25.2691 88.3801 29.4007 88.3824 33.5346C88.3848 36.5927 88.3371 39.6532 88.4039 42.709C88.4135 43.1932 88.7951 43.8086 89.1934 44.1164C90.0617 44.7867 91.0516 45.2948 92.2347 46.0199C91.5167 46.6855 90.9395 47.2437 90.3384 47.7732C89.4749 48.5342 88.5852 49.2689 87.7241 50.0298C87.1731 50.5164 86.6507 50.5451 85.9971 50.1777C84.8569 49.5337 83.6977 48.9063 82.4883 48.4173C82.0399 48.236 81.3195 48.2837 80.9116 48.5365C79.7357 49.2665 78.6337 50.1276 77.5436 50.9888C76.9353 51.4706 76.4129 51.4849 75.6973 51.1772C72.9614 50.006 70.2063 48.8777 67.4298 47.8114C66.5306 47.4655 65.543 47.3558 64.3027 47.0695C65.0063 46.6711 65.5001 46.3324 66.0392 46.0986C66.8049 45.7671 67.0696 45.2375 67.0529 44.4145C67.0076 42.1508 67.0673 39.8846 67.0076 37.6209C66.9718 36.2731 67.3845 35.245 68.5295 34.4792C71.0364 32.7999 73.4957 31.049 76.0217 29.4007C76.4034 29.1502 77.0904 29.1359 77.5483 29.2814C78.9366 29.7227 80.2819 30.2952 81.9182 30.9226C81.9182 29.0309 81.9421 27.354 81.8872 25.6794C81.8801 25.4695 81.4984 25.1832 81.2336 25.0854C77.8823 23.8546 74.5524 22.4925 70.8623 22.7978C70.1801 22.8551 69.5027 22.9362 68.5128 23.0364ZM73.4337 38.9782C73.4313 38.9782 73.4289 38.9782 73.4265 38.9782C73.4265 39.8918 73.405 40.8054 73.4313 41.719C73.4623 42.7924 76.599 44.7867 77.5674 44.3644C77.6748 44.3167 77.7726 44.2404 77.8632 44.1641C79.0773 43.1431 80.3248 42.1532 81.4936 41.0821C82.2927 40.3498 82.1735 37.8856 81.3147 37.5898C79.032 36.8026 76.7111 36.1228 74.3926 35.4358C73.7652 35.2497 73.4146 35.5408 73.4265 36.2373C73.448 37.1509 73.4337 38.0645 73.4337 38.9782Z" fill="white"/>
<path d="M260.178 30.7983C260.178 28.9496 260.224 27.3013 260.135 25.6577C260.121 25.3834 259.563 25.0495 259.193 24.8992C255.448 23.382 251.644 22.1607 247.51 22.8883C247.453 22.8978 247.379 22.8239 246.938 22.5877C247.317 22.3826 247.598 22.2681 247.844 22.0939C250.148 20.4694 252.424 18.8068 254.761 17.2348C255.165 16.9629 255.913 16.8341 256.336 17.0201C259.353 18.3512 262.332 19.7562 265.715 19.8969C266.554 19.9327 266.43 20.5911 266.433 21.135C266.435 25.9822 266.435 30.8293 266.435 35.6765C266.435 37.9021 266.469 40.1277 266.414 42.3509C266.392 43.2097 266.65 43.775 267.413 44.1877C268.308 44.672 269.157 45.2421 270.147 45.8504C269.827 46.1915 269.648 46.4372 269.417 46.6208C268.114 47.6609 266.776 48.6604 265.498 49.7291C264.923 50.2085 264.451 50.2682 263.797 49.8841C262.805 49.3021 261.781 48.7534 260.715 48.3336C260.293 48.169 259.618 48.2286 259.234 48.4672C258.194 49.116 257.204 49.865 256.276 50.6689C255.456 51.3822 254.761 51.4704 253.726 50.9909C251.174 49.8054 248.552 48.7677 245.926 47.7444C245.067 47.4104 244.118 47.3102 242.914 47.0359C243.903 46.4777 244.655 46.003 245.449 45.619C246.112 45.2993 246.348 44.8461 246.348 44.1185C246.346 41.4564 246.356 38.7943 246.47 36.1369C246.491 35.6097 246.868 34.9227 247.3 34.615C249.626 32.9548 251.999 31.3613 254.408 29.8251C254.864 29.5341 255.596 29.4315 256.131 29.5531C257.423 29.8465 258.676 30.3212 260.178 30.7983ZM252.61 39.3024C252.61 39.9751 252.61 40.6501 252.61 41.3228C252.61 42.8948 253.8 44.2497 255.336 44.3762C255.58 44.3976 255.894 44.2855 256.085 44.1257C257.33 43.0856 258.592 42.0575 259.768 40.9412C260.572 40.1802 260.419 37.7781 259.57 37.4656C257.602 36.7452 255.599 36.1202 253.602 35.4809C252.865 35.2448 252.591 35.6073 252.605 36.3301C252.627 37.3201 252.61 38.3124 252.61 39.3024Z" fill="white"/>
<path d="M246.01 52.5822C245.07 53.3527 244.132 54.1232 243.192 54.8913C242.055 55.8216 240.938 56.783 239.758 57.656C239.436 57.8946 238.837 58.0639 238.503 57.928C234.992 56.4896 231.583 54.7816 227.726 53.8918C228.325 53.5698 228.909 53.2144 229.527 52.9305C230.188 52.6276 230.436 52.1839 230.433 51.4396C230.407 44.7628 230.4 38.0836 230.436 31.4068C230.441 30.4598 230.14 30.1282 229.207 30.176C227.979 30.238 226.746 30.2022 225.515 30.1998C224.692 30.1974 224.368 29.9255 224.919 29.1264C225.987 27.5711 227.115 26.1637 229.334 26.574C230.15 26.7242 230.46 26.2949 230.433 25.4719C230.386 24.043 230.462 22.6094 230.398 21.1805C230.348 20.0904 230.674 19.1648 231.535 18.5685C233.117 17.4688 234.777 16.4812 236.685 15.2671C236.759 16.0686 236.831 16.4741 236.831 16.8796C236.84 19.7016 236.869 22.5235 236.814 25.3455C236.795 26.3068 237.146 26.5954 238.059 26.5716C239.925 26.5239 241.792 26.5501 243.658 26.562C244.075 26.5644 244.495 26.6288 244.915 26.6646C244.698 28.4656 242.83 30.2046 241.244 30.207C240.092 30.2094 238.939 30.2404 237.79 30.2046C237.057 30.1831 236.824 30.4908 236.824 31.1969C236.838 37.0794 236.812 42.9618 236.862 48.8443C236.867 49.2856 237.26 49.8796 237.649 50.1324C240.137 51.7426 242.837 52.6705 245.895 52.234C245.933 52.3485 245.971 52.4654 246.01 52.5822Z" fill="white"/>
<path d="M114.589 22.4874C113.014 23.8089 111.411 25.2044 109.732 26.5021C109.482 26.6953 108.828 26.5355 108.444 26.3566C106.354 25.3881 104.294 24.3576 102.221 23.3581C101.944 23.2245 101.646 23.1338 101.176 22.9526C101.114 23.475 101.028 23.8805 101.026 24.2836C101.016 30.4833 101.033 36.6807 101.002 42.8804C100.997 43.7224 101.352 44.1566 102.027 44.5693C104.806 46.2629 107.812 46.6494 110.975 46.2558C111.209 46.2271 111.442 46.2057 111.678 46.189C111.712 46.1866 111.748 46.2271 111.888 46.3106C111.724 46.5134 111.6 46.74 111.409 46.8831C108.99 48.6889 106.548 50.4636 104.148 52.2933C103.49 52.7966 102.955 52.8252 102.206 52.4698C99.697 51.2795 97.1662 50.1321 94.6067 49.0539C93.6741 48.6603 92.6412 48.5076 91.2816 48.1474C92.1642 47.6751 92.8011 47.2886 93.4761 46.9881C94.2323 46.6517 94.4684 46.1413 94.4636 45.3064C94.4326 39.0279 94.497 32.7495 94.4374 26.4734C94.4231 24.8585 95.0433 23.7517 96.2789 22.8428C99.0554 20.8009 101.81 18.7256 104.594 16.6932C104.83 16.5214 105.317 16.4022 105.522 16.5286C108.501 18.3487 111.452 20.2141 114.407 22.0723C114.465 22.1105 114.474 22.2155 114.589 22.4874Z" fill="white"/>
<path d="M224.935 47.1337C223.516 48.0688 222.228 48.72 221.183 49.648C219.289 51.3297 217.488 51.4991 215.392 50.0177C214.321 49.2615 213.032 48.8155 211.592 48.107C212.634 47.3627 213.488 46.8642 214.192 46.2058C214.597 45.8265 214.988 45.192 214.996 44.6672C215.067 38.7895 215.074 32.9118 215.043 27.0342C215.041 26.6883 214.621 26.2327 214.278 26.0203C213.517 25.5456 212.682 25.1926 211.635 24.3816C211.914 24.248 212.217 24.1478 212.47 23.976C214.111 22.8573 215.754 21.7457 217.364 20.584C217.956 20.1546 218.452 20.095 219.098 20.4599C220.949 21.5071 222.829 22.5018 224.973 23.6659C224.003 24.31 223.28 24.8419 222.507 25.2833C221.765 25.7079 221.5 26.2637 221.505 27.1272C221.536 32.7282 221.543 38.3291 221.491 43.9301C221.481 44.9058 221.758 45.4926 222.643 45.8814C223.325 46.1748 223.955 46.5899 224.935 47.1337Z" fill="white"/>
<path d="M163.356 27.6279C163.275 27.814 163.256 28.0096 163.148 28.0859C161.622 29.188 161.588 30.7624 161.631 32.4417C161.705 35.3805 161.653 38.3218 161.653 41.263C161.653 41.6494 161.653 42.0359 161.653 42.5559C162.206 42.4438 162.602 42.3651 162.996 42.2839C163.039 42.346 163.082 42.408 163.124 42.47C162.309 43.0878 161.493 43.708 160.675 44.3259C159.248 45.4017 157.8 46.4513 156.403 47.5629C155.78 48.0567 155.241 48.0519 154.547 47.737C153.137 47.0977 151.718 46.4584 150.253 45.9742C149.154 45.6092 147.973 45.4852 146.594 45.2061C147.148 44.8841 147.567 44.574 148.037 44.3807C148.91 44.0205 149.271 43.4838 149.249 42.4724C149.178 38.9372 149.256 35.3996 149.197 31.8644C149.178 30.7361 149.621 30.0062 150.468 29.3502C152.252 27.9738 153.979 26.5258 155.761 25.1447C156.023 24.9419 156.508 24.7678 156.78 24.8704C158.821 25.6337 160.837 26.4686 162.857 27.2916C163.029 27.3584 163.172 27.5015 163.356 27.6279ZM153.815 29.4027C153.815 30.0682 153.815 30.4546 153.815 30.8387C153.805 33.9779 153.793 37.1171 153.786 40.2587C153.781 42.3126 153.977 42.5487 155.938 43.2095C156.744 43.4814 157.142 43.3407 157.137 42.408C157.123 38.7106 157.156 35.0156 157.099 31.3205C157.094 30.9341 156.689 30.395 156.326 30.2113C155.639 29.8583 154.847 29.7175 153.815 29.4027Z" fill="white"/>
<path d="M180.73 28.1456C180.594 28.4175 180.563 28.6084 180.454 28.6799C178.844 29.7486 178.734 31.3254 178.782 33.0715C178.87 36.3682 178.808 39.6696 178.805 42.9686C178.803 44.7315 179.137 45.1107 180.871 45.3111C181.129 45.3397 181.384 45.3922 182.021 45.4948C180.556 46.4967 179.373 47.3268 178.164 48.114C178.009 48.2142 177.687 48.1665 177.494 48.0758C176.21 47.4699 174.941 46.8354 173.438 46.0959C175.635 45.075 174.874 43.2024 174.91 41.6066C174.984 38.2693 174.917 34.9297 174.953 31.5902C174.96 30.8364 174.741 30.3998 173.985 30.2042C173.023 29.9561 172.076 29.6532 171.134 29.3407C170.462 29.1189 170.149 29.3264 170.152 30.0349C170.156 34.5266 170.144 39.0184 170.19 43.5101C170.192 43.856 170.557 44.252 170.848 44.5263C171.149 44.8102 171.566 44.97 172.186 45.335C170.815 46.2223 169.639 46.9905 168.453 47.7371C168.339 47.8087 168.119 47.8158 167.995 47.7586C166.791 47.2004 165.596 46.6207 164.381 46.0411C164.525 45.7548 164.551 45.5902 164.629 45.5592C166.335 44.8627 166.33 43.4576 166.294 41.9167C166.218 38.5389 166.201 35.1588 166.306 31.781C166.345 30.5119 166.013 29.7415 164.799 29.3646C164.472 29.262 164.183 29.0425 163.594 28.7253C164.992 27.7854 166.211 26.9481 167.456 26.1562C167.602 26.0631 167.914 26.18 168.124 26.2635C168.417 26.3804 168.72 26.5164 168.961 26.712C170.404 27.8832 171.75 27.9357 173.076 26.4997C173.801 25.7149 174.602 25.6528 175.628 26.1729C176.892 26.8169 178.293 27.1938 179.633 27.6924C179.981 27.8236 180.325 27.9786 180.73 28.1456Z" fill="white"/>
<path d="M7.65457 8.30395C7.68319 8.59736 7.73805 8.89315 7.73805 9.18656C7.75237 23.7257 7.76429 38.2673 7.77384 52.8064C7.77384 54.4667 7.46374 54.9294 6.14228 55.1584C6.10889 54.8126 6.04687 54.4762 6.04687 54.1375C6.00155 41.0677 5.9276 28.0004 5.95861 14.9307C5.96338 13.0915 6.46668 11.25 6.79824 9.42033C6.87457 9.00288 7.18466 8.62599 7.38741 8.23239C7.47567 8.25863 7.56393 8.28249 7.65457 8.30395Z" fill="white"/>
<path d="M197.493 12.8002C197.533 13.3178 197.578 13.6231 197.578 13.9285C197.581 26.5617 197.578 39.1973 197.583 51.8305C197.583 53.2188 197.123 54.3471 195.756 55.3418C195.694 54.7789 195.63 54.4568 195.627 54.1324C195.575 48.0138 195.475 41.8952 195.501 35.779C195.532 29.2668 195.677 22.7545 195.797 16.24C195.818 14.9447 195.861 13.6112 197.493 12.8002Z" fill="white"/>
<path d="M224.133 10.582C221.56 15.131 217.982 17.6953 212.901 18.69C214.542 16.7483 215.773 14.6467 217.576 13.3395C219.368 12.0418 221.734 11.5457 224.133 10.582Z" fill="white"/>
<path d="M123.868 104.054C123.807 104.033 123.684 103.972 123.623 103.932C123.521 103.87 123.419 103.769 123.358 103.687C123.277 103.545 123.236 103.382 123.277 103.198C123.318 103.076 123.379 102.974 123.481 102.852C123.582 102.75 123.725 102.648 123.847 102.567C123.969 102.506 124.214 102.363 124.295 102.343C124.295 102.343 124.255 102.281 123.99 102.017C123.827 101.854 123.664 101.691 123.664 101.691C123.644 101.691 123.623 101.67 123.603 101.629C123.542 101.528 123.521 101.487 123.521 101.405C123.521 101.344 123.521 101.324 123.562 101.263C123.603 101.161 123.725 101.1 123.868 101.1C123.929 101.1 123.969 101.1 124.031 101.141C124.112 101.181 124.173 101.242 124.194 101.304C124.214 101.344 124.214 101.426 124.194 101.466C124.173 101.528 124.153 101.568 124.112 101.609C124.092 101.629 124.071 101.65 124.071 101.65C124.071 101.65 124.194 101.65 124.234 101.629C124.336 101.609 124.52 101.548 124.642 101.487C124.703 101.466 124.846 101.385 124.886 101.365C125.008 101.283 125.151 101.181 125.212 101.12L125.233 101.1H125.294C125.355 101.1 125.355 101.1 125.355 101.1C125.355 101.141 125.436 101.242 125.497 101.324C125.62 101.446 125.722 101.507 125.823 101.507C125.864 101.507 125.864 101.507 125.925 101.487C125.946 101.466 125.986 101.446 126.007 101.446C126.027 101.426 126.048 101.426 126.048 101.426C126.048 101.426 126.068 101.405 126.088 101.405C126.109 101.385 126.149 101.365 126.149 101.365L126.17 101.344L126.21 101.385C126.231 101.405 126.231 101.426 126.231 101.446C126.231 101.446 126.109 101.548 125.946 101.65L125.66 101.854V102.587V103.32L125.823 103.463C125.905 103.545 125.986 103.606 125.986 103.606C125.986 103.606 126.027 103.585 126.088 103.545L126.17 103.483L126.19 103.504C126.21 103.524 126.21 103.545 126.231 103.545L126.251 103.565L126.149 103.646C126.088 103.687 125.946 103.809 125.803 103.891L125.559 104.074H125.518H125.477L125.375 103.972C125.314 103.932 125.273 103.87 125.273 103.87C125.273 103.87 125.212 103.809 125.171 103.769C125.131 103.707 125.11 103.646 125.09 103.545C125.09 103.524 125.09 103.463 125.09 103.443C125.09 103.422 125.09 103.402 125.09 103.402C125.09 103.402 124.825 103.545 124.52 103.748L123.969 104.095H123.908C123.908 104.054 123.868 104.054 123.868 104.054ZM124.784 103.422L125.131 103.198V102.526V101.854L124.968 101.731L124.805 101.609L124.723 101.65C124.52 101.752 124.275 101.833 124.051 101.854C124.031 101.854 124.01 101.854 124.01 101.854C124.01 101.854 124.194 102.017 124.397 102.241C124.601 102.444 124.784 102.628 124.784 102.628L124.703 102.73C124.703 102.73 124.642 102.668 124.56 102.587L124.418 102.444L124.295 102.506C124.132 102.587 124.051 102.648 123.969 102.73C123.888 102.811 123.868 102.852 123.847 102.954C123.827 103.015 123.827 103.137 123.847 103.198C123.868 103.28 123.908 103.361 123.969 103.402C124.031 103.463 124.153 103.545 124.234 103.585C124.295 103.626 124.418 103.646 124.418 103.646C124.418 103.646 124.581 103.545 124.784 103.422ZM128.655 104.013C128.635 103.993 128.594 103.972 128.574 103.952C128.553 103.932 128.513 103.911 128.472 103.87C128.37 103.789 128.248 103.728 128.166 103.687C128.126 103.667 128.064 103.667 128.024 103.687C127.983 103.707 127.881 103.748 127.84 103.769C127.82 103.789 127.8 103.789 127.8 103.789C127.8 103.789 127.779 103.769 127.759 103.728L127.718 103.667L127.8 103.626C127.84 103.606 127.963 103.524 128.085 103.443C128.187 103.361 128.288 103.3 128.288 103.3C128.288 103.3 128.288 103.239 128.288 102.383V101.466H128.146C128.003 101.466 128.003 101.466 127.963 101.487C127.901 101.507 127.861 101.528 127.84 101.568C127.82 101.589 127.82 101.609 127.82 101.609C127.82 101.609 127.82 101.609 127.779 101.589C127.738 101.568 127.738 101.568 127.738 101.568C127.738 101.568 127.779 101.446 127.84 101.324L127.942 101.079H128.126H128.309V100.55V100.02L128.594 99.8367L128.879 99.6533V100.346V101.039H129.042C129.124 101.039 129.205 101.039 129.226 101.039C129.246 101.039 129.307 101.018 129.348 100.998C129.389 100.978 129.45 100.937 129.47 100.916L129.511 100.896L129.552 100.916L129.592 100.937L129.572 100.957C129.572 100.978 129.511 101.079 129.47 101.202L129.389 101.426H129.144H128.9V102.343V103.259L129.063 103.361C129.144 103.422 129.226 103.463 129.226 103.463L129.49 103.28C129.49 103.28 129.511 103.3 129.531 103.32L129.572 103.361L129.45 103.463C129.389 103.524 129.205 103.646 129.063 103.769L128.798 103.972H128.757H128.716L128.655 104.013ZM131.63 104.013C131.609 103.993 131.568 103.972 131.548 103.952C131.528 103.932 131.487 103.911 131.446 103.87C131.304 103.769 131.181 103.687 131.1 103.687C131.059 103.687 131.059 103.687 131.018 103.687C130.957 103.687 130.876 103.728 130.815 103.789C130.794 103.809 130.774 103.809 130.774 103.809L130.692 103.707C130.692 103.707 130.815 103.626 130.978 103.524L131.263 103.341V102.424V101.507H131.12C130.978 101.507 130.957 101.507 130.896 101.528C130.855 101.548 130.815 101.589 130.794 101.609L130.774 101.629L130.733 101.609C130.713 101.589 130.692 101.589 130.692 101.589C130.692 101.589 130.733 101.466 130.794 101.344L130.896 101.1H131.08H131.263V100.57V100.04L131.548 99.8571L131.833 99.6737V100.366V101.059H131.996C132.078 101.059 132.159 101.059 132.159 101.059C132.18 101.059 132.261 101.039 132.302 101.018C132.343 100.998 132.383 100.957 132.424 100.937L132.444 100.916L132.485 100.937C132.506 100.957 132.526 100.957 132.526 100.957C132.526 100.957 132.485 101.079 132.424 101.202L132.322 101.446H132.078H131.833V102.363V103.28L131.996 103.402C132.078 103.463 132.159 103.524 132.159 103.524C132.159 103.524 132.22 103.483 132.302 103.422L132.444 103.32L132.485 103.361C132.506 103.382 132.526 103.402 132.526 103.402C132.526 103.402 132.383 103.524 132.2 103.646C132.037 103.769 131.854 103.911 131.813 103.932L131.731 103.993H131.691H131.65L131.63 104.013ZM142.549 104.033C142.509 104.013 142.407 103.932 142.386 103.891C142.366 103.87 142.325 103.83 142.264 103.769C142.142 103.646 142.121 103.646 142.06 103.667C142.02 103.687 141.979 103.707 141.877 103.789C141.877 103.789 141.857 103.789 141.816 103.748L141.755 103.687L141.979 103.524L142.203 103.361V101.691C142.203 100.631 142.203 99.9793 142.203 99.9386C142.203 99.8163 142.162 99.633 142.142 99.4904C142.142 99.4496 142.121 99.4089 142.121 99.4089L142.203 99.3885C142.203 99.3885 142.244 99.4292 142.244 99.4496C142.244 99.4496 142.244 99.4496 142.264 99.47C142.284 99.4904 142.366 99.633 142.386 99.6737C142.386 99.6941 142.407 99.7348 142.407 99.7552C142.407 99.7756 142.427 99.7959 142.427 99.7959C142.427 99.7959 142.447 99.7756 142.468 99.7348C142.488 99.6941 142.529 99.6533 142.549 99.633C142.59 99.5718 142.855 99.307 143.018 99.1644C143.059 99.1236 143.059 99.1236 143.079 99.144C143.099 99.1644 143.14 99.1848 143.14 99.2051C143.14 99.2051 143.12 99.2459 143.099 99.2663C143.038 99.3885 142.936 99.5718 142.896 99.7145C142.855 99.8367 142.835 99.9385 142.814 100.081C142.814 100.122 142.814 100.387 142.814 100.937V101.711L143.303 101.405L143.792 101.1H143.853H143.914L144.261 101.487C144.566 101.833 144.607 101.874 144.607 101.894V101.915L144.24 102.118C144.037 102.241 143.874 102.343 143.853 102.343C143.853 102.343 143.874 102.383 143.914 102.485C143.996 102.607 144.118 102.831 144.199 103.056C144.22 103.117 144.281 103.219 144.301 103.28C144.322 103.341 144.362 103.402 144.362 103.422C144.383 103.463 144.444 103.565 144.464 103.606C144.485 103.626 144.505 103.646 144.546 103.626C144.587 103.626 144.607 103.606 144.688 103.545C144.709 103.524 144.75 103.504 144.75 103.504C144.75 103.504 144.77 103.524 144.79 103.545L144.831 103.585L144.505 103.809L144.179 104.033H144.118C144.057 104.033 144.057 104.033 144.037 104.013C143.975 103.972 143.935 103.911 143.853 103.748C143.792 103.626 143.731 103.504 143.69 103.382C143.609 103.157 143.507 102.913 143.446 102.831C143.405 102.73 143.323 102.628 143.303 102.628C143.303 102.628 143.181 102.689 143.018 102.77L142.753 102.913V103.096V103.28L142.814 103.32C142.977 103.443 143.079 103.524 143.099 103.524C143.099 103.524 143.14 103.504 143.201 103.483L143.303 103.422L143.344 103.463C143.385 103.504 143.385 103.504 143.385 103.504C143.385 103.504 143.283 103.585 143.16 103.667C143.038 103.748 142.875 103.87 142.794 103.932L142.651 104.033H142.59C142.57 104.054 142.57 104.054 142.549 104.033ZM143.466 102.424C143.792 102.241 144.037 102.098 144.037 102.098C144.037 102.098 143.914 101.955 143.772 101.792L143.507 101.487L143.16 101.711L142.814 101.935V102.363V102.791L142.855 102.77C142.875 102.75 143.14 102.607 143.466 102.424ZM162.677 104.013C162.657 103.993 162.616 103.972 162.596 103.952C162.576 103.932 162.514 103.911 162.494 103.87C162.392 103.789 162.25 103.707 162.189 103.687C162.127 103.667 162.046 103.667 162.005 103.707C161.985 103.707 161.964 103.728 161.944 103.728C161.924 103.728 161.883 103.748 161.863 103.769C161.842 103.789 161.822 103.789 161.822 103.789L161.74 103.687C161.74 103.687 161.863 103.606 162.026 103.504L162.311 103.32V102.404V101.487H162.168C162.066 101.487 162.026 101.487 162.005 101.507C161.924 101.528 161.883 101.548 161.842 101.609L161.822 101.629L161.781 101.609C161.761 101.589 161.74 101.589 161.74 101.589C161.74 101.589 161.781 101.466 161.842 101.344L161.944 101.1H162.127H162.311V100.57V100.04L162.596 99.8571L162.881 99.6737V100.366V101.059H163.024C163.105 101.059 163.187 101.059 163.187 101.059C163.207 101.059 163.207 101.059 163.248 101.059C163.329 101.039 163.39 101.018 163.452 100.957L163.492 100.916L163.533 100.937C163.553 100.957 163.574 100.957 163.553 100.978C163.553 100.978 163.513 101.1 163.452 101.222L163.35 101.466H163.105H162.861V102.383V103.3L163.024 103.422C163.105 103.483 163.187 103.545 163.187 103.545C163.187 103.545 163.248 103.504 163.329 103.443L163.472 103.341L163.513 103.382C163.533 103.402 163.553 103.422 163.553 103.422C163.553 103.422 163.37 103.565 163.166 103.728L162.779 104.013H162.739H162.698H162.677ZM168.626 104.013C168.606 103.993 168.565 103.972 168.545 103.952C168.524 103.932 168.484 103.911 168.443 103.87C168.321 103.789 168.198 103.707 168.117 103.687C168.076 103.667 168.015 103.667 167.974 103.687C167.934 103.687 167.832 103.748 167.791 103.789C167.771 103.809 167.75 103.809 167.75 103.809L167.669 103.707C167.669 103.707 167.791 103.626 167.954 103.524L168.239 103.341V102.424V101.507H168.097C167.954 101.507 167.954 101.507 167.913 101.528C167.852 101.548 167.811 101.568 167.791 101.609C167.771 101.629 167.771 101.65 167.771 101.65C167.771 101.65 167.75 101.65 167.73 101.629C167.709 101.609 167.689 101.609 167.689 101.609C167.689 101.609 167.73 101.507 167.791 101.365C167.852 101.242 167.893 101.12 167.893 101.12C167.893 101.12 167.934 101.12 168.076 101.12H168.26V100.59C168.26 100.183 168.26 100.061 168.26 100.061C168.26 100.061 168.402 99.9793 168.545 99.8774L168.83 99.6941V100.407V101.12H168.993C169.074 101.12 169.156 101.12 169.176 101.12C169.217 101.12 169.278 101.1 169.319 101.079C169.36 101.059 169.441 101.018 169.462 100.978L169.482 100.957L169.543 100.998C169.543 100.998 169.502 101.12 169.441 101.242L169.339 101.487H169.095H168.85V102.404V103.32L169.013 103.422C169.095 103.483 169.176 103.524 169.176 103.524C169.176 103.524 169.237 103.483 169.319 103.422L169.462 103.32L169.502 103.361C169.543 103.402 169.543 103.402 169.543 103.422C169.543 103.422 169.36 103.565 169.156 103.728L168.769 104.013H168.728H168.687H168.626ZM134.197 104.033C134.135 104.013 134.034 103.952 133.972 103.911C133.891 103.87 133.85 103.809 133.789 103.748C133.667 103.626 133.626 103.524 133.626 103.361C133.626 103.137 133.708 102.974 133.932 102.77C134.054 102.668 134.156 102.587 134.298 102.506C134.4 102.444 134.584 102.363 134.645 102.343C134.665 102.343 134.685 102.322 134.685 102.322C134.685 102.322 134.054 101.691 134.034 101.67C134.013 101.65 133.952 101.568 133.932 101.528C133.911 101.466 133.891 101.446 133.891 101.385C133.891 101.304 133.932 101.222 133.993 101.181C134.054 101.141 134.115 101.1 134.217 101.1C134.298 101.1 134.36 101.12 134.441 101.161C134.523 101.222 134.563 101.283 134.563 101.385C134.563 101.466 134.523 101.568 134.461 101.609C134.421 101.629 134.441 101.629 134.502 101.629C134.604 101.629 134.706 101.589 134.869 101.528C135.073 101.446 135.256 101.365 135.399 101.263C135.46 101.222 135.541 101.141 135.582 101.1L135.602 101.059H135.663H135.724V101.079C135.745 101.12 135.806 101.222 135.867 101.283C135.969 101.385 136.091 101.466 136.193 101.466C136.234 101.466 136.295 101.466 136.356 101.405C136.397 101.385 136.417 101.365 136.438 101.365C136.458 101.365 136.458 101.344 136.478 101.344C136.499 101.344 136.519 101.324 136.539 101.304L136.58 101.263L136.601 101.304C136.621 101.324 136.621 101.344 136.641 101.344C136.641 101.344 136.519 101.426 136.356 101.548L136.071 101.752V102.485V103.219L136.234 103.361C136.315 103.443 136.397 103.504 136.397 103.504C136.397 103.504 136.438 103.483 136.499 103.443L136.58 103.382L136.601 103.402C136.662 103.463 136.662 103.483 136.662 103.483C136.662 103.483 136.539 103.565 136.397 103.667C136.254 103.769 136.112 103.87 136.05 103.911L135.969 103.972H135.928H135.887L135.786 103.87C135.623 103.728 135.623 103.728 135.602 103.687C135.562 103.646 135.541 103.585 135.521 103.524C135.5 103.463 135.5 103.382 135.5 103.32C135.5 103.3 135.5 103.28 135.5 103.28C135.5 103.28 135.236 103.443 134.93 103.626L134.38 103.972H134.319C134.258 104.054 134.237 104.054 134.197 104.033ZM135.154 103.422L135.5 103.198V102.526V101.854L135.337 101.731L135.174 101.609L135.134 101.629C135.032 101.691 134.889 101.752 134.767 101.772C134.645 101.813 134.584 101.813 134.461 101.833H134.38L134.747 102.18C134.95 102.383 135.113 102.546 135.134 102.567L135.154 102.587L135.113 102.628L135.073 102.668L134.93 102.526C134.848 102.444 134.787 102.383 134.787 102.383C134.787 102.383 134.726 102.404 134.665 102.444C134.502 102.526 134.441 102.567 134.36 102.668C134.258 102.77 134.217 102.872 134.217 103.035C134.217 103.096 134.217 103.117 134.237 103.157C134.258 103.259 134.319 103.32 134.4 103.402C134.502 103.483 134.604 103.545 134.747 103.585C134.808 103.606 134.808 103.606 134.828 103.606C134.787 103.646 134.95 103.545 135.154 103.422ZM139.127 104.033C139.045 103.972 138.76 103.769 138.617 103.707C138.495 103.646 138.434 103.626 138.373 103.646C138.312 103.646 138.271 103.687 138.19 103.748L138.149 103.769L138.108 103.728C138.088 103.707 138.067 103.687 138.067 103.667C138.067 103.667 138.088 103.646 138.271 103.504L138.475 103.361V102.587V101.813L138.393 101.772L138.312 101.731V101.67V101.609H138.373C138.495 101.609 138.638 101.589 138.78 101.548C138.862 101.528 139.045 101.466 139.106 101.426C139.269 101.365 139.453 101.263 139.575 101.161L139.616 101.12H139.677C139.718 101.12 139.738 101.12 139.738 101.12C139.738 101.12 139.86 101.242 139.901 101.283C139.962 101.324 140.043 101.385 140.084 101.405C140.166 101.446 140.268 101.466 140.39 101.466H140.451V101.528V101.589L140.41 101.629C140.329 101.731 140.186 101.813 140.064 101.854C140.003 101.874 139.962 101.894 139.881 101.894C139.819 101.894 139.799 101.894 139.738 101.894C139.656 101.894 139.595 101.874 139.555 101.854C139.453 101.792 139.351 101.691 139.269 101.568L139.249 101.507H139.229C139.229 101.507 139.188 101.528 139.147 101.548L139.066 101.568V102.404V103.239L139.249 103.32C139.473 103.422 139.595 103.483 139.677 103.524C139.718 103.545 139.758 103.565 139.758 103.565C139.758 103.565 140.003 103.422 140.268 103.259L140.329 103.219L140.369 103.259C140.41 103.3 140.41 103.3 140.41 103.32C140.41 103.32 140.268 103.422 140.105 103.524C139.942 103.626 139.697 103.789 139.555 103.87L139.31 104.013H139.229H139.147L139.127 104.033ZM150.108 104.033C150.087 104.013 150.067 103.993 150.026 103.972C150.006 103.952 149.924 103.911 149.863 103.87C149.72 103.789 149.598 103.707 149.537 103.687C149.496 103.667 149.496 103.667 149.456 103.667C149.415 103.667 149.415 103.667 149.374 103.687C149.354 103.687 149.333 103.707 149.313 103.728C149.293 103.748 149.293 103.748 149.272 103.748C149.272 103.748 149.272 103.748 149.252 103.748L149.17 103.809C149.17 103.809 149.048 103.728 149.048 103.707C149.048 103.707 149.15 103.646 149.272 103.565L149.496 103.422V102.628V101.833H149.476C149.456 101.833 149.415 101.792 149.354 101.752C149.293 101.691 149.293 101.691 149.293 101.65C149.293 101.629 149.293 101.629 149.435 101.609C149.843 101.589 150.311 101.487 150.678 101.324C150.78 101.283 150.922 101.202 151.004 101.161L151.045 101.141H151.106H151.167L151.228 101.181C151.248 101.202 151.289 101.242 151.31 101.263C151.473 101.385 151.554 101.446 151.676 101.487C151.798 101.548 151.839 101.548 151.921 101.528C152.002 101.507 152.084 101.466 152.145 101.405C152.165 101.385 152.186 101.365 152.186 101.365L152.206 101.344L152.247 101.385C152.267 101.405 152.287 101.426 152.287 101.446C152.287 101.446 152.186 101.528 152.063 101.609L151.839 101.772V102.546V103.32L151.86 103.341C151.86 103.341 151.9 103.361 151.921 103.382C152.002 103.443 152.043 103.483 152.043 103.524C152.043 103.565 151.982 103.606 151.839 103.606C151.697 103.606 151.513 103.626 151.391 103.646C151.167 103.687 150.882 103.769 150.678 103.87C150.556 103.932 150.413 104.013 150.352 104.054L150.311 104.074H150.23H150.148L150.108 104.033ZM150.922 103.585C151.045 103.545 151.126 103.524 151.208 103.504H151.248V102.709V101.915L150.902 101.731L150.535 101.548L150.311 101.609L150.087 101.67V102.465V103.259L150.434 103.443C150.617 103.545 150.78 103.626 150.78 103.626C150.821 103.626 150.861 103.606 150.922 103.585ZM154.61 104.033C154.569 103.993 154.427 103.87 154.386 103.83C154.365 103.809 154.325 103.789 154.304 103.769C154.264 103.748 154.182 103.728 154.162 103.728C154.121 103.728 154.019 103.769 153.958 103.809C153.938 103.83 153.897 103.85 153.876 103.891C153.856 103.911 153.836 103.932 153.815 103.932L153.693 103.83C153.693 103.83 153.815 103.728 153.978 103.626L154.264 103.422V102.668V101.915L154.101 101.772C154.019 101.691 153.938 101.629 153.938 101.629C153.938 101.629 153.897 101.67 153.856 101.711C153.815 101.752 153.775 101.792 153.775 101.792L153.673 101.691C153.673 101.691 153.836 101.568 154.019 101.426L154.365 101.181H154.447H154.528L154.671 101.324C154.814 101.487 154.834 101.507 154.854 101.589C154.875 101.67 154.895 101.894 154.895 102.037C154.895 102.078 154.895 102.098 154.895 102.098C154.895 102.098 155.18 101.894 155.527 101.65L156.158 101.202H156.219H156.28L156.301 101.242C156.342 101.283 156.443 101.426 156.505 101.466C156.606 101.548 156.688 101.589 156.729 101.609C156.79 101.629 156.871 101.609 156.932 101.548C156.973 101.507 157.075 101.466 157.095 101.426L157.116 101.405L157.156 101.466C157.197 101.507 157.197 101.528 157.197 101.528C157.197 101.528 157.075 101.609 156.932 101.711C156.79 101.813 156.668 101.894 156.647 101.894L156.627 101.915V102.546C156.627 103.239 156.627 103.219 156.668 103.32C156.688 103.402 156.749 103.483 156.81 103.545C156.851 103.585 156.912 103.626 156.953 103.626L156.973 103.646L157.055 103.585C157.095 103.545 157.136 103.524 157.136 103.524L157.218 103.646C157.218 103.646 157.095 103.748 156.932 103.85C156.79 103.952 156.627 104.054 156.606 104.074L156.545 104.115H156.484H156.443L156.423 104.095C156.403 104.095 156.382 104.054 156.342 104.033C156.28 103.993 156.179 103.891 156.138 103.83C156.097 103.769 156.056 103.707 156.056 103.626C156.056 103.585 156.056 103.504 156.036 102.75V101.915L155.873 101.772C155.792 101.691 155.71 101.629 155.71 101.629C155.71 101.629 154.875 102.281 154.854 102.281C154.854 102.281 154.854 102.526 154.854 102.831V103.382L155.017 103.483C155.16 103.565 155.18 103.585 155.201 103.585C155.201 103.585 155.241 103.565 155.303 103.524C155.343 103.504 155.384 103.463 155.384 103.463C155.384 103.463 155.466 103.545 155.466 103.565C155.466 103.565 155.303 103.687 155.099 103.83L154.732 104.095H154.671H154.61V104.033ZM165.53 104.033C165.53 104.033 165.489 103.993 165.468 103.972C165.387 103.911 165.306 103.809 165.265 103.728C165.224 103.646 165.224 103.748 165.224 102.689V101.752L165.102 101.65L164.98 101.548L164.857 101.629C164.796 101.67 164.735 101.691 164.735 101.691C164.654 101.629 164.633 101.609 164.633 101.609C164.633 101.609 164.817 101.487 165.02 101.344L165.407 101.079H165.448H165.489L165.55 101.141C165.672 101.263 165.815 101.344 165.896 101.385C165.937 101.405 165.978 101.405 166.019 101.385C166.059 101.365 166.141 101.324 166.202 101.283L166.243 101.242L166.283 101.283C166.304 101.304 166.324 101.344 166.324 101.344C166.324 101.344 166.202 101.446 166.059 101.548L165.794 101.752V102.485V103.219L165.815 103.259C165.856 103.361 165.978 103.483 166.08 103.545L166.12 103.565L166.141 103.545C166.161 103.545 166.202 103.504 166.263 103.463L166.365 103.402L166.406 103.443C166.426 103.463 166.446 103.483 166.446 103.483C166.446 103.483 166.12 103.728 165.794 103.972L165.733 104.013H165.631L165.53 104.033ZM171.315 104.033C171.275 104.033 171.214 103.993 171.173 103.972C171.071 103.911 170.989 103.85 170.908 103.769C170.826 103.687 170.786 103.606 170.745 103.504C170.725 103.463 170.725 103.443 170.725 103.361C170.725 103.259 170.725 103.219 170.765 103.137C170.806 103.035 170.847 102.954 170.949 102.852C171.071 102.73 171.214 102.628 171.356 102.546C171.438 102.506 171.641 102.404 171.723 102.363C171.764 102.343 171.784 102.343 171.784 102.343C171.784 102.343 171.173 101.711 171.152 101.711C171.132 101.691 171.051 101.589 171.03 101.528C171.01 101.466 171.01 101.365 171.051 101.283C171.091 101.222 171.173 101.161 171.254 101.141C171.356 101.12 171.458 101.141 171.56 101.181C171.641 101.242 171.682 101.304 171.703 101.385C171.703 101.466 171.662 101.589 171.58 101.65C171.56 101.67 171.58 101.67 171.621 101.67C171.703 101.67 171.764 101.65 171.865 101.609C172.049 101.548 172.232 101.466 172.375 101.385C172.497 101.324 172.64 101.222 172.701 101.141L172.742 101.1H172.803C172.864 101.1 172.864 101.1 172.864 101.1C172.864 101.141 172.945 101.242 173.006 101.304C173.129 101.446 173.271 101.507 173.373 101.507C173.414 101.507 173.414 101.507 173.455 101.487C173.475 101.466 173.516 101.446 173.536 101.446C173.556 101.426 173.577 101.426 173.577 101.426C173.577 101.426 173.618 101.405 173.618 101.385C173.658 101.344 173.719 101.324 173.719 101.324C173.719 101.324 173.74 101.344 173.76 101.365L173.801 101.405L173.516 101.609L173.23 101.813V102.546V103.28L173.393 103.422C173.475 103.504 173.556 103.565 173.556 103.565C173.556 103.565 173.597 103.545 173.638 103.504C173.679 103.463 173.719 103.443 173.719 103.443C173.719 103.443 173.74 103.463 173.76 103.483L173.801 103.524L173.74 103.585C173.699 103.606 173.536 103.728 173.393 103.83L173.129 104.033H173.088H173.047L172.945 103.952C172.884 103.911 172.843 103.85 172.843 103.85C172.823 103.85 172.782 103.789 172.762 103.748C172.721 103.687 172.701 103.626 172.68 103.504C172.68 103.463 172.68 103.422 172.68 103.402C172.68 103.382 172.68 103.361 172.68 103.361C172.68 103.361 172.395 103.545 171.743 103.932L171.56 104.054H171.478C171.377 104.054 171.336 104.054 171.315 104.033ZM171.886 103.646C171.886 103.646 172.049 103.545 172.232 103.422L172.579 103.198V102.526V101.854L172.456 101.772C172.395 101.731 172.314 101.67 172.293 101.65L172.232 101.609L172.151 101.65C171.947 101.752 171.723 101.833 171.499 101.854C171.458 101.854 171.438 101.854 171.438 101.874C171.438 101.874 171.621 102.057 171.825 102.261C172.028 102.465 172.212 102.648 172.212 102.648C172.212 102.648 172.191 102.668 172.171 102.709L172.13 102.75L171.988 102.607L171.845 102.465L171.723 102.526C171.58 102.587 171.54 102.628 171.478 102.689C171.336 102.811 171.275 102.933 171.275 103.096C171.275 103.259 171.336 103.361 171.478 103.483C171.58 103.565 171.662 103.606 171.784 103.646C171.845 103.646 171.886 103.646 171.886 103.646ZM176.103 104.013C176.062 103.972 175.96 103.87 175.899 103.83C175.838 103.789 175.777 103.748 175.716 103.728C175.655 103.707 175.614 103.707 175.573 103.728C175.492 103.748 175.431 103.789 175.349 103.87L175.308 103.911L175.288 103.891C175.227 103.85 175.186 103.809 175.186 103.809C175.186 103.809 175.308 103.707 175.471 103.606L175.757 103.402V102.648V101.894L175.594 101.752C175.512 101.67 175.431 101.609 175.431 101.609C175.431 101.609 175.39 101.65 175.329 101.691L175.247 101.772L175.186 101.711C175.145 101.67 175.125 101.65 175.145 101.65C175.145 101.65 175.308 101.528 175.492 101.405L175.838 101.161H175.92H176.001L176.144 101.304C176.225 101.385 176.286 101.466 176.286 101.466C176.327 101.528 176.347 101.691 176.347 101.955C176.347 102.017 176.347 102.078 176.347 102.078C176.347 102.078 176.633 101.874 176.979 101.629L177.611 101.181H177.672H177.733L177.753 101.222C177.794 101.263 177.896 101.385 177.937 101.426C177.998 101.487 178.059 101.528 178.1 101.548C178.14 101.568 178.14 101.568 178.201 101.568C178.242 101.568 178.262 101.568 178.303 101.548C178.364 101.528 178.507 101.426 178.527 101.385L178.548 101.365L178.629 101.466C178.629 101.466 178.507 101.548 178.344 101.67L178.059 101.874V102.444C178.059 103.056 178.059 103.157 178.079 103.239C178.12 103.382 178.181 103.483 178.324 103.565C178.344 103.585 178.364 103.585 178.385 103.585H178.405L178.425 103.565C178.446 103.565 178.466 103.524 178.507 103.504L178.568 103.463L178.609 103.524C178.65 103.585 178.65 103.585 178.65 103.606C178.65 103.606 178.527 103.687 178.385 103.789C178.242 103.891 178.1 103.993 178.059 104.013L177.998 104.054H177.937H177.875L177.814 104.013C177.733 103.952 177.611 103.83 177.57 103.789C177.529 103.728 177.509 103.667 177.488 103.585C177.488 103.545 177.488 103.443 177.468 102.709V101.874L177.305 101.731C177.223 101.65 177.142 101.589 177.142 101.589C177.142 101.589 176.959 101.731 176.714 101.915L176.286 102.241V102.791V103.341L176.449 103.443C176.551 103.504 176.612 103.545 176.612 103.545C176.612 103.545 176.653 103.524 176.714 103.483L176.816 103.422L176.857 103.463C176.898 103.504 176.898 103.504 176.898 103.524C176.898 103.524 176.735 103.646 176.531 103.789L176.164 104.054H176.103H176.042L176.103 104.013ZM165.306 100.285C165.204 100.203 165.122 100.122 165.122 100.122C165.122 100.122 165.081 100.163 165.02 100.203C164.918 100.285 164.918 100.285 164.898 100.285C164.898 100.285 164.878 100.265 164.837 100.244C164.796 100.224 164.796 100.203 164.796 100.203C164.796 100.203 164.959 100.081 165.143 99.9386L165.468 99.6737H165.509H165.55L165.733 99.8163C165.835 99.8978 165.917 99.9589 165.917 99.9589C165.917 99.9589 165.937 99.9589 166.019 99.8978C166.08 99.8571 166.12 99.8163 166.12 99.8163C166.12 99.8163 166.202 99.8978 166.202 99.9182C166.202 99.9182 166.059 100.04 165.876 100.203L165.55 100.468H165.509H165.468L165.306 100.285ZM196.374 95.9659C196.353 95.9455 192.91 90.2412 192.91 90.2208C192.91 90.2208 192.91 90.2004 192.951 90.1801C193.583 89.8337 193.99 89.6096 194.438 89.3448C197.331 87.6131 199.674 85.4333 201.406 82.8663C202.16 81.7458 202.791 80.5438 203.321 79.2604C203.586 78.6288 203.85 77.8546 204.075 77.0805C204.828 74.595 205.338 71.6614 205.46 69.1148C205.46 68.9722 205.48 68.8703 205.48 68.5444C205.48 68.4425 205.48 67.4239 205.48 65.1625V61.9233H208.455H211.449V64.9995C211.449 66.9349 211.449 68.1369 211.449 68.2388C211.49 69.4815 211.633 70.9483 211.857 72.3744C212.325 75.4711 213.14 78.2621 214.22 80.5235C215.28 82.7644 216.95 84.8628 219.191 86.7778C220.515 87.8983 221.982 88.9373 223.795 89.9967C223.856 90.0375 223.897 90.0578 223.897 90.0578C223.877 90.0986 220.434 95.9863 220.434 95.9863C220.434 95.9863 220.373 95.9455 220.312 95.9048C217.785 94.2546 215.687 92.4211 213.935 90.3227C212.713 88.8559 211.674 87.2872 210.757 85.5351C210.655 85.3314 210.37 84.7406 210.268 84.5369C209.779 83.4979 209.351 82.4996 208.944 81.3384C208.821 80.992 208.618 80.3808 208.495 80.0345C208.475 79.9734 208.455 79.9327 208.455 79.9327V79.953C208.434 80.0141 208.312 80.442 208.271 80.6049C207.701 82.4996 206.947 84.2924 205.949 86.0444C204.584 88.4484 202.811 90.6486 200.652 92.6452C199.531 93.6842 198.309 94.662 196.985 95.5788C196.802 95.7011 196.394 95.9659 196.374 95.9659C196.374 95.9863 196.374 95.9863 196.374 95.9659ZM79.4146 95.9455C79.4146 95.9251 77.6626 89.63 77.6218 89.5485L77.6014 89.5078L77.6829 89.467C78.5997 88.9985 79.3535 88.5299 79.985 88.0206C80.0869 87.9391 80.2499 87.7965 80.3314 87.7354C80.3517 87.715 80.4129 87.6742 80.474 87.6131L80.5758 87.5316V83.9257V80.3197H79.272H77.9681V77.5491V74.7784H81.5741C83.5502 74.7784 85.1801 74.7784 85.1801 74.7784C85.1801 74.7784 84.8541 74.2691 84.4466 73.6375C83.8355 72.7004 83.7132 72.4966 83.7132 72.4966C83.7132 72.4966 83.7743 72.4559 83.8151 72.3948C84.304 71.967 84.8541 71.4169 85.3023 70.9076C87.1358 68.8907 88.6638 66.4664 89.8046 63.7364C90.0898 63.0641 90.3139 62.4326 90.5788 61.6381L90.6399 61.4343H90.6603C90.6603 61.4343 91.8011 61.6381 93.1661 61.8621C94.5311 62.1066 95.6516 62.29 95.6719 62.29C95.6719 62.29 95.6719 62.3511 95.5497 62.6771C95.1423 63.8383 94.8163 64.6736 94.47 65.5292C94.47 65.5292 94.6941 65.5292 95.6108 65.5292H96.7517L96.7924 65.4477C96.8536 65.3255 97.0165 64.9995 97.098 64.8569C97.4851 64.042 97.8518 63.0641 98.2389 61.9436C98.3204 61.6788 98.3408 61.6381 98.3408 61.6381C98.3408 61.6381 100.969 62.0048 102.762 62.2696C103.21 62.3307 103.597 62.3918 103.597 62.3918H103.617L103.475 62.6771C102.823 64.0828 102.578 64.5513 102.089 65.3866C102.049 65.4681 102.008 65.5292 102.008 65.5292C102.008 65.5292 103.332 65.5292 104.941 65.5292H107.875V68.1573V70.7854H104.717H101.56V71.5595V72.3337H104.167H106.775V74.1265V75.9192H104.167H101.56V76.7342V77.5491H104.167H106.775V79.3011V81.0531H104.167H101.56V81.8477V82.6422H104.778H107.997V85.311V87.9798H97.8314H87.6859V81.9903C87.6859 78.6288 87.6859 76.0007 87.6859 76.0007C87.6859 76.0007 87.6248 76.0619 87.5433 76.1433C87.2581 76.4489 87.0136 76.7138 86.8099 76.8971C86.7487 76.9583 86.6876 77.0194 86.6876 77.0194C86.6876 77.0194 86.4635 76.673 86.1783 76.2248L85.6894 75.4303V79.9938C85.6894 83.1719 85.6894 84.6184 85.6894 84.7406C85.6894 85.0665 85.7097 85.311 85.7505 85.5962C85.9135 86.7778 86.4024 87.6539 87.1766 88.2447C87.9304 88.8151 88.949 89.1411 90.3751 89.2429C90.5788 89.2633 90.8029 89.2633 91.1492 89.2837C91.2715 89.2837 93.5124 89.2837 100.235 89.2837H109.179V89.3041C109.179 89.3041 108.894 90.5875 108.547 92.1562L107.916 95.0084H99.7872C91.7808 95.0084 91.3937 95.0084 91.0474 94.988C89.4787 94.9065 88.1545 94.6009 86.9932 94.0305C86.4432 93.7453 85.9542 93.4397 85.4856 93.0526C85.0374 92.6859 84.63 92.2581 84.1003 91.6469C84.0392 91.5858 83.9984 91.5247 83.9984 91.5247C83.9984 91.5247 83.9373 91.5858 83.8762 91.6469C82.4705 93.3175 81.0648 94.662 79.6998 95.6399C79.5572 95.7418 79.435 95.8437 79.4146 95.8437C79.435 95.9659 79.435 95.9659 79.4146 95.9455ZM96.7313 81.8884V81.0939H94.7348H92.7383V81.8884V82.683H94.7348H96.7313V81.8884ZM96.7313 76.7953V75.9804H94.7348H92.7383V76.7953V77.6102H94.7348H96.7313V76.7953ZM96.7313 71.6206V70.8465H94.7348H92.7383V71.641V72.4355H94.7348H96.7313V71.6206ZM162.311 79.2604V62.6363H176.714H191.118V65.4477V68.2591H179.464H167.811V69.6445V71.0298H178.303H188.795V78.4251V85.8203H178.303H167.811V87.3483V88.8762H179.689H191.566V91.7691V94.662H179.689H167.811V95.2732V95.8844H165.061H162.311V79.2604ZM183.254 78.4251V76.4693H175.533H167.811V78.4251V80.3808H175.533H183.254V78.4251ZM117.552 95.8437C117.552 95.8437 117.348 95.0491 117.124 94.112L116.696 92.3803H119.202C120.812 92.3803 121.729 92.3803 121.79 92.3803C122.116 92.3599 122.279 92.2377 122.34 91.9729C122.36 91.871 122.38 91.6876 122.38 91.4635V91.3617H116.106H109.851V89.8134V88.265H116.106H122.36V87.7965V87.3279H117.206H112.052V86.0037V84.6387H117.206H122.36V84.1905V83.7423H121.851C121.28 83.7423 120.241 83.7627 118.897 83.7831C118.693 83.7831 118.245 83.7831 117.919 83.8034C117.593 83.8034 117.063 83.8238 116.758 83.8238C115.617 83.8442 115.352 83.8442 114.741 83.8442C113.946 83.8442 112.724 83.8646 112.703 83.8646L112.113 81.2161C112.113 81.2161 112.316 81.2161 112.54 81.2161C113.437 81.1958 114.293 81.1958 114.741 81.1958C115.006 81.1958 115.332 81.1958 115.474 81.1958H115.739V80.4216V79.6474H112.785H109.831V78.1195V76.5915H112.785H115.739V76.1637V75.7359H113.254H110.768V71.3354V66.9146H113.254H115.739V66.4867V66.0589H112.948H110.157V64.5106V62.9623H112.948H115.739V62.453V61.9436H117.837H119.936V62.453V62.9623H122.747H125.559V64.5106V66.0589H122.747H119.936V66.4867V66.9146H122.421H124.907V71.315V75.7155H122.421H119.936V76.1433V76.5712H122.543H125.151V76.5508C125.151 76.5304 125.151 76.5304 125.151 76.5304C125.151 76.5304 125.253 76.5304 125.396 76.5101C125.986 76.4489 126.455 76.4082 126.924 76.3471C127.148 76.3063 127.637 76.2452 127.657 76.2452C127.657 76.2452 127.637 76.2248 127.596 76.1841C127.229 75.8378 126.903 75.5118 126.659 75.2673C126.516 75.1043 126.312 74.9006 126.312 74.8802V74.8599L126.679 74.6969C127.107 74.5135 127.351 74.3913 127.901 74.1468C128.126 74.045 128.411 73.9227 128.513 73.882L128.716 73.8005H127.331H125.946V72.0281V70.2557H126.761C127.209 70.2557 127.555 70.2557 127.555 70.2557C127.555 70.2557 125.11 67.5054 125.049 67.4442L125.029 67.4239L125.11 67.3831C125.253 67.3016 125.416 67.1794 125.538 67.0979C125.742 66.9349 125.946 66.7312 126.088 66.5478C126.435 66.0997 126.659 65.5496 126.781 64.8162C126.883 64.2865 126.924 63.6753 126.944 62.7585V62.5956H132.017H137.089V63.8587C137.089 65.0199 137.089 65.1218 137.11 65.1625C137.13 65.2644 137.151 65.3255 137.212 65.3662C137.273 65.4274 137.334 65.4477 137.477 65.4477C137.599 65.4477 137.782 65.4477 137.864 65.4274C138.047 65.3866 138.149 65.3051 138.21 65.1218C138.271 64.9384 138.291 64.6328 138.291 64.042C138.291 63.7975 138.291 63.7161 138.291 63.7161C138.291 63.7161 138.74 63.8179 139.31 63.9198C139.86 64.042 140.431 64.1643 140.573 64.1846C140.716 64.2254 140.838 64.2457 140.838 64.2457C140.838 64.2457 140.777 65.3866 140.736 65.7941C140.634 67.0775 140.492 67.8313 140.247 68.3814C139.962 69.0333 139.514 69.3593 138.862 69.4204C138.78 69.4204 134.482 69.4204 134.38 69.4204C133.626 69.3593 133.096 69.0944 132.872 68.6259C132.852 68.5851 132.832 68.5444 132.832 68.5036C132.811 68.4425 132.791 68.3406 132.77 68.2795C132.75 68.1369 132.75 68.198 132.75 67.1998V66.2626H131.935C131.487 66.2626 131.12 66.2626 131.1 66.2626C131.1 66.2626 131.08 66.3441 131.059 66.446C130.998 66.7719 130.957 66.9757 130.896 67.1998C130.713 67.9332 130.448 68.524 130.081 69.0944C129.837 69.4611 129.592 69.7667 129.246 70.1131L129.124 70.2353H134.237H139.351V72.2522V74.2691L139.167 74.432C138.76 74.7988 138.536 74.9821 138.291 75.2062C137.701 75.6951 137.089 76.1433 136.438 76.5508C136.356 76.5915 136.295 76.6323 136.295 76.6527C136.275 76.6527 136.295 76.6527 136.478 76.7138C137.517 76.9786 138.332 77.1212 139.453 77.2638C140.003 77.325 140.879 77.4268 140.879 77.4064C140.879 77.3861 141.123 76.9379 141.164 76.836C141.897 75.4914 142.855 74.3506 144.037 73.4134C145.911 71.9262 148.294 71.0502 150.821 70.928C151.289 70.9076 151.839 70.9076 152.328 70.928C154.019 71.0298 155.506 71.3965 156.831 72.0485C157.971 72.6189 158.929 73.393 159.744 74.3506C161.211 76.123 162.046 78.4658 162.189 81.1958C162.209 81.5013 162.209 81.7662 162.209 82.1125C162.209 82.52 162.189 82.7441 162.168 83.1108C161.985 85.5351 161.272 87.7354 160.09 89.467C159.642 90.0986 159.133 90.7098 158.583 91.2191C157.156 92.5229 154.997 93.4397 152.247 93.8879C151.982 93.9286 151.411 94.0101 151.411 94.0101C151.411 94.0101 151.065 92.9915 150.658 91.7691C150.046 89.9356 149.904 89.5282 149.904 89.5282C149.904 89.5282 150.006 89.5281 150.108 89.5078C150.861 89.4467 151.432 89.3448 152.002 89.2226C153.225 88.9373 154.243 88.5095 155.078 87.878C155.69 87.4094 156.219 86.839 156.606 86.187C157.197 85.2295 157.544 84.0479 157.666 82.683C157.727 82.031 157.727 81.3384 157.666 80.7272C157.544 79.4845 157.218 78.4047 156.647 77.5491C156.301 76.999 155.832 76.5508 155.323 76.1841C154.671 75.7563 153.917 75.471 153.062 75.3488C153 75.3488 152.919 75.3284 152.899 75.3284C152.858 75.3284 152.858 75.3284 152.858 75.3284C152.858 75.3284 152.858 75.4303 152.837 75.5525C152.797 76.5304 152.674 77.7528 152.532 78.8325C152.124 82.0718 151.432 84.8221 150.535 86.9001C150.393 87.226 150.291 87.4501 150.148 87.7354C149.395 89.2226 148.518 90.3023 147.52 90.9542C146.991 91.3006 146.4 91.545 145.809 91.6469C145.564 91.6876 145.381 91.708 145.116 91.708C144.851 91.708 144.668 91.708 144.444 91.6673C143.853 91.5858 143.303 91.4024 142.814 91.0968C142.162 90.6894 141.571 90.0986 141.103 89.3244C140.288 88.0002 139.758 86.1056 139.656 84.0887C139.636 83.8034 139.636 83.5997 139.636 83.2126C139.636 82.8459 139.636 82.7644 139.656 82.4385C139.697 81.7866 139.779 81.0735 139.881 80.4623C139.901 80.4012 139.901 80.3605 139.901 80.3605C139.901 80.3605 139.779 80.7068 139.656 81.1143C139.514 81.5217 139.412 81.868 139.392 81.868V81.8884L139.31 81.868C138.169 81.5625 136.825 81.1346 135.582 80.6661C135.521 80.6457 135.46 80.6253 135.439 80.6049H135.419L135.439 80.6661C135.46 80.7068 135.724 81.2365 136.03 81.868C136.336 82.4996 136.601 83.0089 136.601 83.0089C136.601 83.0089 136.356 83.0293 136.132 83.0497C135.215 83.1108 133.626 83.1923 130.102 83.3756C129.287 83.4164 128.492 83.4571 128.227 83.4775C128.126 83.4775 127.983 83.4979 127.922 83.4979C127.861 83.4979 127.8 83.4979 127.779 83.4979H127.738V84.0479V84.598H132.974H138.21V85.9222V87.2464H132.974H127.738V87.715V88.1836H134.074H140.41V89.7319V91.2802H134.095H127.779V92.1155C127.779 92.9508 127.779 92.9711 127.759 93.1952C127.677 94.112 127.372 94.8047 126.842 95.2325C126.598 95.4362 126.272 95.5992 125.925 95.6807C125.742 95.7214 125.559 95.7622 125.314 95.7825C125.233 95.7825 124.907 95.7825 121.403 95.7825C118.286 95.8437 117.532 95.8437 117.552 95.8437ZM145.279 86.6556C145.381 86.6352 145.463 86.6149 145.585 86.5537C145.89 86.4111 146.196 86.0852 146.481 85.5962C146.665 85.311 146.828 84.9239 146.991 84.5369C147.765 82.6218 148.376 79.5456 148.681 75.96C148.702 75.634 148.722 75.6137 148.702 75.5933C148.702 75.5933 148.539 75.6544 148.376 75.7155C147.622 76.0211 146.95 76.4286 146.379 76.9175C146.176 77.0805 145.931 77.325 145.768 77.5083C145.238 78.0991 144.811 78.7714 144.464 79.5456C144.037 80.5235 143.772 81.6236 143.69 82.7848C143.67 83.0497 143.67 83.1312 143.67 83.4164C143.67 83.8034 143.67 84.0275 143.711 84.3535C143.812 85.311 144.057 86.0241 144.424 86.3908C144.587 86.5538 144.77 86.6556 144.974 86.676C144.994 86.676 145.014 86.676 145.035 86.676C145.076 86.676 145.218 86.6556 145.279 86.6556ZM120.262 81.0939C120.69 81.0939 121.566 81.0735 122.462 81.0531C127.087 80.9717 130.305 80.7679 133.158 80.3808C133.545 80.3401 134.217 80.2382 134.217 80.2179C134.217 80.2179 134.115 80.1771 133.993 80.116C133.137 79.7697 132.444 79.4437 131.731 79.0566C131.67 79.0159 131.63 78.9955 131.609 78.9955C131.609 78.9955 131.568 79.0159 131.507 79.0363C130.224 79.5659 129.042 79.953 127.759 80.2994C127.412 80.3808 126.475 80.6049 126.475 80.6049C126.475 80.6049 126.251 79.8919 125.966 79.0159C125.701 78.1399 125.457 77.4268 125.457 77.4268C125.457 77.4268 125.457 77.7528 125.457 78.5066V79.6067H122.706H119.956V80.3401C119.956 80.7476 119.956 81.0735 119.956 81.0735H119.976C119.976 81.0939 120.099 81.0939 120.262 81.0939ZM132.078 75.0432C133.239 74.595 133.748 74.3302 134.278 73.9431C134.4 73.8412 134.706 73.5968 134.706 73.5968C134.706 73.5968 133.606 73.5968 132.261 73.5968C130.917 73.5968 129.816 73.5968 129.816 73.5968C129.816 73.5968 130.041 73.8005 130.224 73.9431C130.652 74.2894 131.141 74.6154 131.731 74.9821C131.833 75.0432 131.915 75.084 131.935 75.1043C131.956 75.1043 131.956 75.1247 131.956 75.1247C131.915 75.1043 131.996 75.084 132.078 75.0432ZM115.882 72.6596V72.0892H115.067H114.252V72.6596V73.2301H115.067H115.882V72.6596ZM121.464 72.6596V72.0892H120.608H119.752V72.6596V73.2301H120.608H121.464V72.6596ZM115.882 69.8278V69.2574H115.067H114.252V69.8278V70.3983H115.067H115.882V69.8278ZM121.464 69.8278V69.2574H120.608H119.752V69.8278V70.3983H120.608H121.464V69.8278ZM83.428 71.478C83.3669 71.3762 83.1632 71.1317 83.0002 70.9483C82.2056 69.9908 81.1463 68.8703 80.1684 67.9536C79.3942 67.2201 78.6608 66.609 78.07 66.2219C78.0293 66.2015 77.9885 66.1608 77.9885 66.1608C77.9885 66.1608 81.3093 61.5362 81.3296 61.5158C81.3296 61.5158 81.35 61.5158 81.4519 61.5973C83.0613 62.7585 84.9152 64.4291 86.8302 66.446C86.9117 66.5275 86.9728 66.5886 86.9728 66.5886L83.4688 71.5188C83.4484 71.4984 83.4484 71.4984 83.428 71.478Z" fill="white"/>
</svg>
